<svg xmlns="http://www.w3.org/2000/svg" fill-rule="evenodd" stroke-linejoin="round" stroke-miterlimit="2" clip-rule="evenodd" viewBox="0 0 32 32"><g transform="translate(-52)"><path d="M76.572,27.902L74.84,28.902C74.515,29.089 74.113,29.079 73.798,28.876C73.484,28.674 73.308,28.312 73.344,27.939L74.175,19.377C74.206,19.055 74.39,18.769 74.67,18.607C74.95,18.446 75.29,18.429 75.584,18.563L83.414,22.125C83.755,22.28 83.981,22.613 83.999,22.987C84.017,23.361 83.824,23.714 83.5,23.902L81.768,24.902L83.268,27.5C84.096,28.935 83.605,30.769 82.17,31.598C80.735,32.426 78.9,31.935 78.072,30.5L76.572,27.902Z"/><path d="M62,19L64,19C64.552,19 65,18.552 65,18C65,17.448 64.552,17 64,17L62,17C61.448,17 61,17.448 61,18C61,18.552 61.448,19 62,19Z" transform="rotate(-30 74.334 5.358)"/><path d="M62,19L64,19C64.552,19 65,18.552 65,18C65,17.448 64.552,17 64,17L62,17C61.448,17 61,17.448 61,18C61,18.552 61.448,19 62,19Z" transform="rotate(-30 69.334 -13.303)"/><path d="M62,19L64,19C64.552,19 65,18.552 65,18C65,17.448 64.552,17 64,17L62,17C61.448,17 61,17.448 61,18C61,18.552 61.448,19 62,19Z" transform="rotate(-120 67.01 13.78)"/><path d="M54,8L54,2.75C54,2.267 54.448,1.875 55,1.875L55,1L55,1.875C55.552,1.875 56,2.267 56,2.75C56,4.823 56,8 56,8C56,8.483 56.448,8.875 57,8.875C57.552,8.875 58,8.483 58,8C58,8 58,4.823 58,2.75C58,1.3 56.657,0.125 55,0.125L55,1C55,0.125 55,0.125 55,0.125C53.343,0.125 52,1.3 52,2.75C52,4.823 52,8 52,8C52,8.483 52.448,8.875 53,8.875C53.552,8.875 54,8.483 54,8Z" transform="matrix(1 0 0 1.14286 0 -.143)"/><path d="M54,8L54,1C54,0.448 53.552,0 53,0C52.448,-0 52,0.448 52,1L52,8C52,8.552 52.448,9 53,9C53.552,9 54,8.552 54,8Z" transform="translate(0 12)"/><path d="M53,6L56.5,6C57.052,6 57.5,5.552 57.5,5C57.5,4.448 57.052,4 56.5,4L53,4C52.448,4 52,4.448 52,5C52,5.552 52.448,6 53,6Z" transform="translate(0 .5)"/><path d="M57,14L58,14C58,15.657 56.657,17 55,17L53,17C52.448,17 52,16.552 52,16L52,12C52,11.448 52.448,11 53,11L55,11C56.657,11 58,12.343 58,14L57,14L58,14L57,14ZM56,14C56,13.448 55.552,13 55,13L54,13L54,15L55,15C55.552,15 56,14.552 56,14C56,14 57,14 57,14L56,14Z" transform="translate(0 1)"/><path d="M57,14L58,14C58,15.657 56.657,17 55,17L53,17C52.448,17 52,16.552 52,16L52,12C52,11.448 52.448,11 53,11L55,11C56.657,11 58,12.343 58,14L57,14L58,14L57,14ZM56,14C56,13.448 55.552,13 55,13L54,13L54,15L55,15C55.552,15 56,14.552 56,14C56,14 57,14 57,14L56,14Z" transform="translate(0 5)"/><path d="M86.143,4.5C86.143,2.429 81.922,0.75 76.714,0.75C73.758,0.75 70.242,0.75 67.286,0.75C62.078,0.75 57.857,2.429 57.857,4.5L61,4.5L57.857,4.5C57.857,6.571 62.078,8.25 67.286,8.25C70.242,8.25 73.758,8.25 76.714,8.25C81.922,8.25 86.143,6.571 86.143,4.5L83,4.5L86.143,4.5Z" transform="matrix(.31818 0 0 .8 41.59 13.4)"/><path d="M83,5L84,5C84,4.204 83.684,3.441 83.121,2.879C82.559,2.316 81.796,2 81,2C76.816,2 67.184,2 63,2C62.204,2 61.441,2.316 60.879,2.879C60.316,3.441 60,4.204 60,5L61,5L60,5C60,5.796 60.316,6.559 60.879,7.121C61.441,7.684 62.204,8 63,8C67.184,8 76.816,8 81,8C81.796,8 82.559,7.684 83.121,7.121C83.684,6.559 84,5.796 84,5L83,5Z"/></g></svg>